<svg width="96" height="94" viewBox="0 0 96 94" fill="none" xmlns="http://www.w3.org/2000/svg">
<path d="M39.0001 76.1C39.1001 76.1 39.2001 76.1 39.3001 76.1C41.7001 75.9 43.6001 73.8 43.4001 71.4L40.6001 31.2C40.4001 28.8 38.3001 27 35.9001 27.1C33.5001 27.3 31.6001 29.4 31.8001 31.8L34.6001 72C34.8001 74.3 36.7001 76.1 39.0001 76.1Z" fill="black"/>
<path d="M56.6999 76C56.7999 76 56.8999 76 56.9999 76C59.2999 76 61.1999 74.2 61.3999 71.9L64.1999 31.7C64.3999 29.3 62.4999 27.2 60.0999 27C57.6999 26.9 55.5999 28.7 55.3999 31.1L52.5999 71.3C52.3999 73.8 54.1999 75.9 56.6999 76Z" fill="black"/>
<path d="M91.1 9.39999H65.6L60.9 2.79999C60 1.59999 58.6 0.899994 57.2 0.899994H38.8C37.3 0.899994 35.9 1.59999 35.1 2.79999L30.4 9.39999H4.9C2.5 9.39999 0.5 11.4 0.5 13.8C0.5 16.2 2.5 18.2 4.9 18.2H8.7L16.3 81.7C17.1 88.2 22.6 93.1 29.2 93.1H66.9C73.5 93.1 79 88.2 79.8 81.7L87.4 18.2H91.2C93.6 18.2 95.6 16.2 95.6 13.8C95.5 11.4 93.5 9.39999 91.1 9.39999ZM71 80.6C70.8 82.7 69 84.3 66.9 84.3H29.2C27.1 84.3 25.3 82.7 25.1 80.6L17.6 18.2H78.5L71 80.6Z" fill="black"/>
</svg>
